<?xml version="1.0" standalone="no"?>
<!DOCTYPE svg PUBLIC "-//W3C//DTD SVG 20010904//EN"
 "http://www.w3.org/TR/2001/REC-SVG-20010904/DTD/svg10.dtd">
<svg version="1.0" xmlns="http://www.w3.org/2000/svg"
 width="1280.000000pt" height="1280.000000pt" viewBox="0 0 1280.000000 1280.000000"
 preserveAspectRatio="xMidYMid meet">

<g transform="translate(0.000000,1280.000000) scale(0.100000,-0.100000)"
fill="#000000" stroke="none">
<path d="M5475 12042 c-11 -2 -24 -8 -29 -13 -6 -5 -47 -9 -91 -9 -107 0 -227
-41 -290 -99 -24 -22 -56 -46 -72 -54 -28 -15 -113 -106 -123 -133 -12 -30
-264 -194 -309 -201 -20 -3 -62 -19 -93 -34 -32 -16 -68 -29 -81 -29 -13 0
-38 -11 -57 -25 -19 -14 -39 -25 -46 -25 -6 0 -31 -17 -55 -39 -24 -21 -53
-41 -64 -45 -42 -13 -233 -223 -249 -272 -10 -34 -77 -89 -156 -131 -99 -51
-180 -103 -180 -114 0 -5 -16 -26 -35 -48 -19 -21 -35 -44 -35 -51 0 -7 -25
-37 -55 -66 -30 -30 -55 -58 -55 -63 0 -11 -109 -143 -155 -188 -35 -34 -49
-60 -46 -81 3 -15 -27 -52 -41 -52 -4 0 -8 9 -8 21 l0 20 -27 -20 c-76 -55
-113 -101 -82 -101 5 0 7 -5 4 -11 -10 -15 6 -190 16 -183 13 8 10 -8 -5 -29
-8 -10 -11 -28 -7 -45 5 -25 6 -24 12 13 5 35 6 33 8 -23 0 -34 -3 -70 -8 -80
-6 -9 -12 -30 -16 -45 -6 -31 -31 -32 -28 -1 1 10 -2 26 -7 35 -6 10 -4 23 5
37 15 21 10 56 -6 46 -5 -3 -6 2 -3 10 3 9 2 16 -3 16 -6 0 -9 21 -7 48 2 26
3 62 3 80 1 19 5 31 11 27 6 -4 10 5 10 20 0 14 -7 28 -15 31 -8 4 -12 10 -9
15 3 5 9 7 14 4 4 -3 6 4 3 15 -3 11 -8 20 -12 20 -4 0 -67 -61 -140 -135 -74
-74 -138 -135 -142 -135 -5 0 -9 -4 -9 -9 0 -4 -19 -28 -42 -52 -93 -96 -156
-168 -176 -200 -11 -19 -44 -58 -71 -88 -28 -29 -51 -61 -51 -71 0 -10 -29
-47 -65 -84 -36 -36 -65 -71 -65 -77 0 -13 -61 -101 -77 -112 -7 -4 -13 -13
-13 -18 0 -6 -11 -25 -25 -43 -14 -18 -25 -36 -25 -40 0 -4 -11 -22 -25 -40
-14 -18 -25 -38 -25 -44 0 -7 -8 -20 -17 -30 -21 -22 -35 -45 -81 -132 -19
-36 -38 -69 -43 -74 -5 -6 -9 -20 -9 -33 0 -12 -6 -26 -14 -30 -16 -9 -76
-114 -76 -133 0 -6 -13 -37 -28 -68 -15 -31 -26 -65 -24 -74 2 -11 -2 -18 -11
-18 -14 0 -39 -50 -52 -100 -3 -14 -15 -43 -25 -65 -10 -22 -21 -49 -26 -60
-40 -110 -59 -164 -84 -245 -17 -52 -38 -115 -47 -140 -9 -25 -18 -61 -21 -80
-2 -19 -8 -40 -13 -46 -4 -5 -10 -34 -13 -64 -3 -29 -9 -56 -14 -59 -5 -3 -11
-17 -14 -31 -38 -173 -61 -287 -69 -345 -5 -38 -14 -99 -19 -135 -43 -279 -59
-861 -30 -1125 25 -228 32 -286 46 -375 29 -188 68 -372 90 -433 8 -20 14 -48
14 -60 0 -13 18 -81 40 -152 23 -72 48 -152 56 -180 8 -27 19 -59 23 -70 5
-11 23 -58 41 -105 18 -47 38 -98 45 -115 7 -16 23 -55 35 -85 41 -102 159
-351 171 -360 3 -3 23 -40 43 -82 21 -43 49 -94 62 -113 13 -20 24 -40 24 -45
0 -4 4 -10 8 -12 4 -1 34 -47 66 -101 32 -54 69 -110 82 -126 13 -16 24 -34
24 -40 0 -6 4 -11 8 -11 5 0 14 -12 21 -26 14 -31 161 -223 187 -245 13 -11
18 -11 21 -2 3 7 29 38 58 68 62 63 94 70 140 31 15 -13 40 -30 54 -38 30 -15
105 -89 121 -119 19 -35 3 -34 -32 2 -45 47 -104 91 -146 109 -34 15 -38 15
-83 -10 -29 -15 -50 -34 -54 -47 -3 -13 -10 -23 -15 -23 -6 0 -10 -5 -10 -10
0 -15 99 -160 109 -160 4 0 22 -20 40 -45 84 -116 605 -605 645 -605 20 0 20
14 2 32 -7 8 -17 25 -21 38 -4 14 -56 120 -117 235 -60 116 -119 228 -130 250
-12 22 -42 69 -68 105 -26 36 -63 90 -81 120 -19 30 -40 63 -49 73 -41 49 -78
86 -112 112 -21 15 -38 33 -38 40 0 22 126 65 245 85 103 16 149 28 260 65 55
18 150 43 210 55 61 12 135 29 166 36 31 8 68 14 82 14 14 0 28 4 31 9 4 5 50
17 104 26 212 37 285 55 353 90 15 8 37 15 47 15 11 0 50 14 87 31 74 35 133
43 145 19 4 -8 15 -31 24 -50 9 -19 29 -43 44 -54 39 -26 82 -87 138 -195 51
-97 105 -164 142 -173 27 -7 29 12 8 74 -17 50 -46 188 -46 218 0 37 34 21 81
-38 75 -93 74 -91 74 -254 -1 -120 -4 -150 -17 -165 -36 -41 -50 -87 -58 -196
-8 -105 -22 -167 -41 -193 -21 -27 -67 -221 -69 -289 -1 -42 -169 -153 -260
-171 -18 -4 -41 -14 -51 -23 -35 -32 -48 -41 -59 -41 -11 0 -86 -35 -140 -66
-14 -7 -31 -12 -37 -9 -7 2 -13 -1 -13 -8 0 -17 -20 14 -20 32 0 11 3 11 15 1
8 -7 15 -8 15 -2 0 5 -9 16 -20 23 -21 14 -22 39 -18 349 0 14 -3 48 -18 200
-3 35 -10 75 -15 89 -6 16 -6 28 1 35 5 5 10 20 10 33 0 13 5 23 11 23 5 0 8
4 5 8 -2 4 0 14 5 22 14 22 29 -5 29 -55 l1 -40 20 24 c16 20 19 37 17 105 -1
44 4 97 10 116 39 118 49 159 46 183 -1 15 2 25 7 22 9 -6 10 -1 13 60 1 20 8
31 19 33 14 3 17 13 16 45 -1 23 1 55 6 71 6 22 5 28 -6 24 -8 -3 -16 -18 -19
-34 -5 -23 -7 -26 -13 -11 -10 26 -44 5 -52 -34 -5 -20 -12 -29 -21 -25 -14 6
-94 -67 -94 -87 0 -7 -7 -3 -15 7 -13 17 -15 17 -15 3 0 -9 -9 -31 -19 -49
-19 -31 -47 -128 -56 -193 -3 -16 -9 -51 -14 -76 -8 -38 -29 -244 -35 -339 -1
-14 -4 -29 -8 -35 -17 -28 -12 -545 6 -545 5 0 6 -17 3 -38 -2 -21 0 -47 5
-56 7 -12 6 -22 -4 -34 -31 -38 -42 -70 -28 -87 7 -8 18 -15 25 -15 7 0 43
-18 79 -40 36 -22 69 -40 74 -40 5 0 44 -19 88 -42 43 -24 117 -60 164 -81 47
-21 103 -46 125 -56 22 -10 65 -28 95 -40 30 -12 64 -26 75 -31 34 -16 175
-60 192 -60 9 0 47 -10 85 -22 61 -20 70 -20 83 -7 14 14 11 15 -25 12 -28 -2
-47 2 -58 13 -15 15 -14 16 7 9 17 -5 29 -1 47 16 21 19 24 20 24 5 0 -9 4
-15 8 -12 5 3 15 -4 22 -15 18 -23 27 -24 48 -2 15 15 15 16 1 11 -12 -5 -19
3 -28 33 -7 21 -16 39 -22 39 -6 0 -8 4 -4 9 3 6 0 13 -7 18 -7 4 -14 19 -16
33 -1 14 -4 36 -7 50 -2 14 -5 34 -7 44 -2 10 3 21 10 23 9 4 11 -2 6 -23 -5
-19 -4 -25 5 -20 6 4 11 14 11 22 0 8 5 12 10 9 6 -4 8 -11 5 -16 -4 -5 -1 -9
6 -9 6 0 9 -8 6 -19 -3 -14 1 -18 18 -17 17 1 22 7 21 29 -1 22 -3 24 -12 13
-9 -12 -12 -12 -21 3 -7 11 -8 22 -3 27 6 6 6 22 1 39 -5 17 -10 22 -10 13 -1
-10 -5 -18 -10 -18 -13 0 -8 33 7 48 15 16 15 29 2 37 -6 4 -7 -1 -4 -12 5
-15 3 -15 -10 2 -8 11 -20 26 -26 33 -9 10 -8 19 5 38 16 24 15 26 -4 31 -12
3 -21 10 -21 15 0 5 5 6 12 2 8 -5 9 -2 5 9 -5 14 -3 15 13 4 11 -6 20 -17 20
-23 0 -7 7 -14 15 -18 14 -5 18 5 18 39 0 6 10 10 23 10 12 0 22 -2 22 -5 -2
-30 4 -42 20 -38 22 6 47 -17 31 -28 -6 -3 -15 -1 -19 5 -5 10 -11 9 -22 -2
-15 -16 -13 -91 3 -81 5 3 9 0 9 -5 0 -6 -4 -11 -10 -11 -5 0 -10 -4 -10 -10
0 -18 18 -10 25 10 4 11 11 18 16 15 5 -4 9 -1 9 4 0 6 5 11 11 11 8 0 9 -13
5 -39 -3 -21 -1 -54 6 -72 12 -34 12 -34 19 -9 6 23 7 22 8 -8 1 -23 -3 -31
-11 -26 -7 4 -8 3 -4 -4 4 -7 2 -12 -4 -12 -6 0 -8 -5 -4 -11 4 -8 9 -7 15 2
11 18 22 5 22 -26 0 -14 4 -25 9 -25 5 0 6 5 3 10 -3 6 -1 10 5 10 7 0 10 -6
7 -13 -3 -8 -1 -20 3 -27 5 -7 4 -23 0 -36 -10 -24 10 -61 26 -51 6 3 16 -3
23 -15 7 -11 8 -17 2 -13 -6 3 -11 -1 -11 -9 0 -10 6 -13 17 -9 12 5 15 2 10
-10 -3 -9 -2 -17 3 -17 5 0 7 -7 3 -16 -6 -15 -8 -15 -20 2 -12 16 -13 16 -13
1 0 -9 -3 -17 -7 -18 -57 -5 -83 -2 -83 9 0 8 5 10 13 6 9 -6 9 -5 1 7 -7 8
-14 23 -17 34 -5 19 -5 19 -12 -2 -4 -13 -13 -23 -21 -23 -7 0 -17 -7 -22 -16
-6 -11 -11 -13 -16 -5 -9 14 2 33 15 26 5 -4 9 0 9 8 0 19 -33 16 -41 -3 -13
-32 7 -52 77 -76 86 -31 138 -43 234 -54 41 -5 86 -12 100 -16 14 -3 39 -8 55
-11 17 -3 36 -11 44 -17 8 -6 35 -11 60 -12 25 0 64 -4 86 -9 l40 -8 -32 27
c-18 15 -33 36 -33 46 0 9 -8 28 -19 41 -10 13 -21 47 -24 74 -11 88 -15 107
-26 118 -6 6 -11 20 -11 31 -1 17 -4 15 -15 -9 l-13 -30 -1 43 c-1 28 -6 45
-16 48 -10 4 -15 19 -15 43 0 20 -7 50 -16 66 -16 30 -21 48 -27 116 -5 42
-35 93 -84 144 -15 14 -24 37 -26 66 -2 23 -9 45 -15 47 -7 2 -12 12 -12 23 0
54 -56 177 -101 221 -9 9 -20 33 -24 54 -3 21 -15 56 -25 78 -36 80 -127 312
-134 341 -8 36 -59 160 -93 230 -14 28 -35 70 -48 95 -40 80 -73 260 -47 260
11 0 71 -39 162 -103 45 -31 85 -57 90 -57 5 0 10 -4 12 -8 2 -5 35 -27 73
-50 39 -22 95 -65 125 -94 30 -30 74 -66 97 -82 24 -16 80 -69 125 -119 116
-127 116 -127 136 -127 10 0 42 -25 72 -56 29 -30 76 -66 104 -78 46 -21 60
-23 134 -17 94 7 117 0 206 -68 41 -30 70 -42 130 -55 43 -9 91 -16 106 -16
47 0 108 27 172 77 93 73 161 118 214 142 27 12 63 28 79 36 17 7 91 43 165
78 74 36 165 75 203 87 84 27 140 69 344 257 19 17 50 42 69 55 18 13 34 26
34 31 0 4 5 7 10 7 19 0 224 195 290 275 61 74 109 136 165 210 33 44 63 85
68 90 4 6 24 35 45 64 20 30 41 55 47 55 5 1 15 -48 21 -109 17 -159 32 -253
49 -310 8 -27 24 -95 35 -150 11 -55 31 -152 45 -215 14 -63 27 -124 28 -135
3 -17 33 -143 43 -183 2 -6 13 -12 24 -12 13 0 20 -7 20 -20 0 -13 7 -20 20
-20 11 0 20 -5 20 -11 0 -5 -5 -7 -11 -3 -8 5 -8 1 0 -14 11 -22 11 -72 0 -72
-17 0 -15 -29 3 -45 20 -17 21 -16 16 9 -3 14 0 30 7 36 9 8 14 2 20 -22 7
-28 9 -30 12 -10 3 12 11 22 19 22 8 0 12 -4 9 -10 -3 -5 -8 -20 -10 -31 -5
-24 -15 -38 -15 -21 0 7 -5 12 -11 12 -6 0 -9 -17 -7 -41 3 -45 -17 -67 -25
-27 -2 13 -5 0 -6 -28 -1 -38 3 -53 14 -58 8 -3 15 -13 15 -22 0 -11 5 -14 16
-10 9 3 18 6 21 6 2 0 -3 7 -11 16 -9 8 -16 21 -16 27 0 6 8 3 18 -6 22 -23
25 -97 3 -89 -10 4 -13 1 -8 -12 4 -10 3 -15 -3 -11 -14 9 -12 -19 3 -34 10
-10 9 -11 -5 -6 -13 5 -18 2 -19 -11 -1 -11 -2 -35 -4 -54 -2 -19 1 -43 7 -53
7 -14 0 -32 -31 -80 -37 -58 -62 -93 -86 -120 -6 -7 -39 -52 -74 -102 -34 -49
-80 -115 -102 -145 -21 -30 -39 -58 -39 -62 0 -6 -38 -68 -57 -93 -5 -5 -14
-22 -20 -37 -17 -39 1 -37 63 7 27 19 64 38 82 41 18 4 58 19 89 35 31 16 63
29 70 29 7 0 13 4 13 10 0 5 15 17 33 25 82 40 78 35 72 93 -6 59 6 68 29 22
12 -26 12 -30 0 -30 -8 0 -14 -9 -14 -20 0 -26 22 -26 45 0 10 11 25 20 34 20
13 0 16 12 14 70 0 40 3 68 8 64 5 -3 9 2 9 10 0 9 -5 16 -11 16 -8 0 -8 4 0
14 7 9 8 17 2 20 -8 5 -8 26 -1 46 1 3 2 14 1 25 -2 16 0 17 8 6 6 -9 15 -11
27 -6 11 5 23 7 28 6 5 -1 4 5 -4 13 -7 9 -23 16 -36 16 -20 0 -24 5 -24 30 0
17 5 30 10 30 6 0 10 -5 10 -11 0 -6 6 -5 14 3 7 7 23 20 35 28 11 8 21 22 21
32 0 10 5 18 10 18 6 0 10 -4 10 -10 0 -5 5 -10 11 -10 6 0 9 8 7 18 -2 9 -11
17 -19 16 -8 -1 -16 7 -16 17 -2 22 33 27 40 7 2 -7 4 1 4 17 1 31 -17 52 -28
34 -3 -6 -9 -1 -12 10 -3 11 1 25 9 32 9 7 14 7 14 1 0 -5 7 -13 16 -16 14 -5
15 -4 5 8 -7 8 -9 25 -6 39 5 17 2 26 -9 30 -9 4 -16 17 -15 29 0 13 3 17 6
11 7 -18 53 39 53 66 0 12 -5 18 -12 16 -18 -7 -20 46 -3 65 7 8 15 46 19 84
4 38 13 75 21 83 9 8 13 19 10 24 -5 8 15 14 37 10 4 0 5 6 2 14 -11 28 6 105
23 105 14 0 14 2 -1 19 -23 25 -19 97 6 95 12 -1 15 5 12 22 -2 13 0 24 6 24
5 0 10 -8 10 -17 1 -17 1 -17 14 0 16 21 3 71 -25 97 -15 15 -21 82 -7 95 10
10 48 -28 48 -48 0 -23 17 -57 41 -80 11 -10 19 -26 19 -36 0 -10 13 -42 29
-72 20 -38 35 -91 50 -179 12 -69 23 -136 26 -150 9 -46 6 -205 -4 -238 -6
-19 -10 -101 -10 -182 -1 -82 -2 -153 -3 -159 -2 -5 0 -10 5 -10 11 -2 71 30
80 43 4 6 4 52 0 101 -5 50 -7 144 -5 210 2 107 -13 250 -43 400 -8 43 -44
144 -64 185 -10 19 -27 62 -37 94 -10 33 -28 74 -39 90 -18 26 -40 75 -115
251 -5 11 -11 32 -14 47 -3 14 -40 76 -81 137 -41 61 -75 115 -75 120 0 5 -7
14 -15 21 -25 20 -17 30 23 30 20 0 52 4 70 9 66 19 297 8 363 -18 19 -7 43
-6 85 4 33 8 78 14 101 15 23 0 44 4 47 9 6 9 124 18 356 27 80 3 161 10 180
15 53 14 187 11 258 -6 34 -8 86 -27 115 -41 75 -39 195 -65 312 -68 l50 -1
45 90 c76 151 178 367 200 425 12 30 25 59 29 65 4 5 20 46 36 90 15 44 31 85
35 90 4 6 17 44 30 85 12 41 33 107 45 145 57 177 78 263 139 560 63 304 87
578 88 975 0 181 -5 353 -12 405 -6 50 -15 135 -21 190 -13 147 -24 211 -64
400 -19 94 -40 190 -45 215 -5 25 -23 92 -41 150 -17 58 -33 116 -36 130 -3
14 -9 30 -13 35 -4 6 -15 37 -24 70 -27 95 -54 168 -147 390 -80 193 -244 515
-309 611 -17 23 -30 45 -30 49 0 5 -55 91 -133 209 -69 104 -269 367 -342 450
-192 218 -343 372 -474 486 -35 30 -68 60 -75 65 -128 114 -437 348 -473 359
-13 4 -23 11 -23 16 0 7 -187 128 -215 139 -5 2 -30 19 -55 37 -126 91 -482
262 -790 379 -52 20 -118 45 -146 56 -28 11 -69 38 -90 60 -21 23 -62 56 -91
75 -28 19 -62 49 -76 67 -13 18 -60 69 -103 114 -44 45 -89 92 -100 105 -61
66 -166 140 -278 194 -38 19 -77 40 -85 48 -35 31 -148 78 -230 97 -107 25
-277 35 -322 20 -19 -6 -56 -13 -84 -15 -27 -3 -90 -18 -140 -33 -80 -24 -105
-27 -225 -26 -149 0 -233 11 -330 41 -36 11 -78 20 -95 20 -42 0 -211 19 -260
29 -22 5 -49 7 -60 5z m455 -1482 c36 -5 146 -19 245 -30 99 -11 196 -23 215
-26 81 -13 230 -46 295 -65 39 -11 95 -28 125 -36 109 -32 221 -78 455 -188
112 -53 153 -71 184 -80 13 -4 46 -20 73 -36 27 -16 51 -29 53 -29 11 0 147
-103 175 -132 17 -18 53 -55 79 -83 26 -27 71 -81 99 -120 29 -38 64 -85 79
-103 15 -18 49 -72 75 -120 26 -48 52 -94 58 -102 13 -20 36 -70 70 -155 16
-38 34 -83 41 -100 19 -47 61 -166 117 -335 28 -85 57 -168 63 -185 25 -70 61
-184 74 -230 7 -27 29 -102 48 -165 19 -63 37 -128 39 -145 3 -16 12 -66 21
-110 9 -44 28 -147 42 -230 15 -82 35 -193 46 -245 11 -52 24 -120 30 -150 35
-185 71 -356 88 -430 64 -264 71 -582 21 -980 -18 -145 -32 -276 -34 -335 -12
-259 -45 -510 -91 -687 -51 -202 -80 -279 -187 -496 -112 -225 -191 -354 -318
-517 -39 -49 -88 -113 -110 -141 -95 -125 -310 -291 -424 -329 -110 -36 -138
-28 -231 60 -38 36 -93 74 -149 102 -58 29 -111 66 -157 109 -124 116 -196
132 -409 89 -129 -26 -140 -27 -238 -15 -167 20 -190 10 -300 -128 -129 -161
-160 -183 -297 -211 -51 -10 -100 -35 -249 -127 l-79 -49 -96 0 c-94 0 -98 1
-195 48 -54 26 -135 71 -180 101 -44 29 -97 62 -116 72 -53 29 -84 53 -163
125 -40 36 -101 90 -137 120 -79 66 -241 226 -295 294 -22 27 -50 61 -63 75
-49 54 -194 277 -231 355 -27 56 -128 312 -157 398 -57 167 -164 559 -164 600
0 9 -4 25 -9 35 -5 9 -16 55 -25 102 -8 47 -27 144 -40 215 -46 243 -49 280
-66 835 -6 173 -17 380 -25 460 -9 80 -18 253 -21 385 -7 269 6 403 66 685 17
80 40 204 51 275 11 72 28 175 39 230 11 55 29 156 40 225 11 69 25 150 31
180 13 63 93 306 114 347 8 15 15 33 15 40 0 21 85 179 132 245 71 98 220 235
348 320 63 41 127 81 142 89 15 8 73 41 130 74 57 33 107 62 113 64 10 4 256
122 400 193 134 66 256 101 375 108 132 7 266 4 350 -10z m-2800 -351 c0 -5
-7 -9 -15 -9 -8 0 -15 7 -15 15 0 9 6 12 15 9 8 -4 15 -10 15 -15z m-168 -113
c-9 -18 -23 -31 -29 -29 -19 7 -16 23 10 44 33 27 39 23 19 -15z m-105 -108
c-3 -8 -6 -5 -6 6 -1 11 2 17 5 13 3 -3 4 -12 1 -19z m107 -3 c-4 -8 -11 -15
-16 -15 -6 0 -5 6 2 15 7 8 14 15 16 15 2 0 1 -7 -2 -15z m-169 -55 c3 -5 1
-10 -4 -10 -6 0 -11 5 -11 10 0 6 2 10 4 10 3 0 8 -4 11 -10z m160 -10 c3 -5
1 -10 -4 -10 -6 0 -11 5 -11 10 0 6 2 10 4 10 3 0 8 -4 11 -10z m-168 -32 c-3
-8 -6 -5 -6 6 -1 11 2 17 5 13 3 -3 4 -12 1 -19z m0 -40 c-3 -8 -6 -5 -6 6 -1
11 2 17 5 13 3 -3 4 -12 1 -19z m183 3 c0 -5 -7 -12 -16 -15 -14 -5 -15 -4 -4
9 14 17 20 19 20 6z m-180 -53 c0 -6 -6 -5 -15 2 -8 7 -15 14 -15 16 0 2 7 1
15 -2 8 -4 15 -11 15 -16z m137 0 c-3 -8 -6 -5 -6 6 -1 11 2 17 5 13 3 -3 4
-12 1 -19z m28 -28 c3 -5 1 -10 -4 -10 -6 0 -11 5 -11 10 0 6 2 10 4 10 3 0 8
-4 11 -10z m69 -19 c4 -5 2 -11 -3 -13 -7 -2 -7 -18 -1 -42 6 -28 5 -47 -4
-64 -11 -22 -12 -20 -11 25 1 26 -2 53 -7 60 -5 7 -5 14 2 18 6 3 8 11 5 16
-4 5 -2 9 4 9 5 0 12 -4 15 -9z m83 -38 c-3 -10 -5 -2 -5 17 0 19 2 27 5 18 2
-10 2 -26 0 -35z m-251 10 c-10 -10 -19 5 -10 18 6 11 8 11 12 0 2 -7 1 -15
-2 -18z m-26 -39 c0 -19 -4 -33 -8 -30 -7 4 -9 49 -3 64 5 13 11 -5 11 -34z
m-223 4 c-3 -8 -6 -5 -6 6 -1 11 2 17 5 13 3 -3 4 -12 1 -19z m261 8 c-7 -8
-15 -12 -17 -11 -5 6 10 25 20 25 5 0 4 -6 -3 -14z m102 4 c0 -5 -5 -10 -11
-10 -5 0 -7 5 -4 10 3 6 8 10 11 10 2 0 4 -4 4 -10z m-180 -35 c0 -8 -4 -15
-10 -15 -5 0 -10 7 -10 15 0 8 5 15 10 15 6 0 10 -7 10 -15z m290 0 c0 -8 -4
-15 -9 -15 -5 0 -11 7 -15 15 -3 9 0 15 9 15 8 0 15 -7 15 -15z m-220 -5 c0
-5 -4 -10 -10 -10 -5 0 -10 5 -10 10 0 6 5 10 10 10 6 0 10 -4 10 -10z m268
-9 c3 -8 -1 -12 -9 -9 -7 2 -15 10 -17 17 -3 8 1 12 9 9 7 -2 15 -10 17 -17z
m-586 -35 c-6 -24 -40 -61 -49 -52 -9 9 6 38 17 31 5 -3 10 3 10 14 0 10 3 27
6 36 9 24 23 -1 16 -29z m626 -44 c2 -13 -2 -22 -10 -22 -8 0 -15 12 -16 26
-2 32 21 28 26 -4z m-592 -57 c-5 -15 -46 -16 -46 -2 0 5 10 20 23 33 21 23
22 23 25 3 2 -11 1 -27 -2 -34z m-106 32 c0 -8 -7 -14 -15 -14 -16 0 -19 9 -8
20 11 11 23 8 23 -6z m730 -61 c18 -44 23 -66 21 -98 -2 -34 -17 -18 -18 18
-1 41 -18 57 -45 43 -12 -6 -18 -6 -18 1 0 5 5 10 10 10 6 0 10 16 10 35 0 48
17 44 40 -9z m-533 -1 c0 -8 -4 -12 -9 -9 -4 3 -8 9 -8 15 0 5 4 9 8 9 5 0 9
-7 9 -15z m280 -17 c-3 -7 -5 -2 -5 12 0 14 2 19 5 13 2 -7 2 -19 0 -25z m83
26 c0 -3 -7 -12 -15 -20 -16 -17 -18 -14 -9 10 6 15 24 23 24 10z m-630 -40
c0 -22 -38 -94 -50 -94 -3 0 -11 9 -18 21 -8 12 -9 18 -3 15 8 -5 43 50 47 77
1 4 2 10 3 13 3 15 21 -11 21 -32z m175 -3 c3 -5 1 -12 -5 -16 -5 -3 -10 1
-10 9 0 18 6 21 15 7z m-35 -43 c0 -18 -2 -20 -9 -8 -6 8 -7 18 -5 22 9 14 14
9 14 -14z m471 -1 c-10 -9 -11 -8 -5 6 3 10 9 15 12 12 3 -3 0 -11 -7 -18z
m-578 -10 c3 -8 1 -20 -4 -28 -6 -10 -9 -7 -9 14 0 29 5 35 13 14z m143 -12
c1 -14 -2 -25 -7 -25 -10 0 -12 33 -2 43 3 4 7 7 7 7 1 0 2 -11 2 -25z m598
-17 c-7 -10 -34 -10 -34 0 0 4 5 13 12 20 9 9 14 9 19 0 4 -7 5 -16 3 -20z
m-647 -30 c-3 -8 -6 -5 -6 6 -1 11 2 17 5 13 3 -3 4 -12 1 -19z m140 0 c-3 -8
-6 -5 -6 6 -1 11 2 17 5 13 3 -3 4 -12 1 -19z m-287 2 c0 -5 -5 -10 -11 -10
-5 0 -7 5 -4 10 3 6 8 10 11 10 2 0 4 -4 4 -10z m800 -20 c-12 -23 -30 -27
-30 -7 0 17 10 27 27 27 11 0 11 -5 3 -20z m-925 -49 c-9 -18 -20 -29 -26 -25
-9 5 -5 15 26 50 17 20 17 7 0 -25z m131 -61 c0 -11 -6 -20 -13 -20 -16 0 -17
12 -1 28 7 7 12 12 13 12 0 0 1 -9 1 -20z m724 -5 c0 -8 -4 -15 -9 -15 -13 0
-22 16 -14 24 11 11 23 6 23 -9z m-585 -5 c3 -5 1 -10 -4 -10 -6 0 -11 5 -11
10 0 6 2 10 4 10 3 0 8 -4 11 -10z m518 -14 c7 -18 -1 -26 -18 -19 -8 2 -11
11 -8 19 7 18 19 18 26 0z m-276 -28 c-3 -8 -6 -5 -6 6 -1 11 2 17 5 13 3 -3
4 -12 1 -19z m88 2 c3 -5 1 -10 -4 -10 -6 0 -11 5 -11 10 0 6 2 10 4 10 3 0 8
-4 11 -10z m-599 -21 c3 -6 2 -15 -4 -21 -7 -7 -14 -3 -21 11 -10 17 -9 21 3
21 8 0 18 -5 22 -11z m-26 -45 c0 -14 -6 -24 -14 -24 -20 0 -29 30 -11 36 8 4
12 11 8 17 -3 6 -1 7 5 3 7 -4 12 -18 12 -32z m68 24 c-2 -6 -11 -12 -20 -14
-11 -1 -15 3 -11 12 6 17 36 19 31 2z m-178 -50 c0 -13 -4 -27 -8 -33 -13 -18
-32 -15 -32 5 0 21 18 49 33 50 4 0 7 -10 7 -22z m486 -3 c-1 -14 -6 -28 -11
-33 -4 -4 -5 -2 -1 5 3 6 2 14 -4 18 -6 4 -5 11 3 20 16 19 16 19 13 -10z
m-460 -62 c-10 -10 -19 5 -10 18 6 11 8 11 12 0 2 -7 1 -15 -2 -18z m-41 -3
c9 -15 -14 -40 -36 -40 -13 0 -17 5 -12 18 11 29 36 41 48 22z m504 -22 c-1
-18 -2 -19 -6 -5 -2 9 -9 15 -14 12 -5 -4 -9 -1 -9 4 0 6 7 11 15 11 9 0 15
-9 14 -22z m-499 -59 c0 -17 -4 -28 -10 -24 -5 3 -10 -3 -10 -15 0 -12 -5 -18
-10 -15 -11 7 -2 53 14 72 15 17 16 17 16 -18z m497 -16 c-3 -10 -5 -2 -5 17
0 19 2 27 5 18 2 -10 2 -26 0 -35z m-137 7 c-6 -10 -14 -21 -18 -24 -12 -7
-10 38 2 46 17 11 27 -2 16 -22z m568 -17 c-2 -9 -11 -17 -21 -19 -17 -2 -17
-1 -3 15 9 10 17 26 17 37 1 17 2 17 6 2 2 -10 3 -25 1 -35z m-654 21 c3 -8 2
-12 -4 -9 -6 3 -10 10 -10 16 0 14 7 11 14 -7z m185 -17 c-2 -30 -2 -30 -6 -4
-4 25 -23 40 -23 17 0 -5 -4 -10 -10 -10 -22 0 -8 26 15 28 22 2 25 -2 24 -31z
m-572 1 c-3 -8 -6 -5 -6 6 -1 11 2 17 5 13 3 -3 4 -12 1 -19z m243 12 c0 -5
-2 -10 -4 -10 -3 0 -8 5 -11 10 -3 6 -1 10 4 10 6 0 11 -4 11 -10z m47 -12
c-3 -8 -6 -5 -6 6 -1 11 2 17 5 13 3 -3 4 -12 1 -19z m-82 -18 c3 -5 1 -10 -4
-10 -6 0 -11 5 -11 10 0 6 2 10 4 10 3 0 8 -4 11 -10z m-225 -32 c0 -7 -4 -19
-9 -27 -11 -17 -23 1 -15 23 7 19 24 21 24 4z m117 -23 c-9 -8 -17 -20 -19
-27 -2 -6 -10 -8 -17 -4 -9 6 -4 15 16 35 15 15 29 24 31 19 2 -4 -3 -15 -11
-23z m190 3 c-3 -8 -6 -5 -6 6 -1 11 2 17 5 13 3 -3 4 -12 1 -19z m-149 -33
c-3 -3 -9 2 -12 12 -6 14 -5 15 5 6 7 -7 10 -15 7 -18z m649 3 c-3 -8 -6 -5
-6 6 -1 11 2 17 5 13 3 -3 4 -12 1 -19z m140 0 c-3 -8 -6 -5 -6 6 -1 11 2 17
5 13 3 -3 4 -12 1 -19z m90 0 c-3 -8 -6 -5 -6 6 -1 11 2 17 5 13 3 -3 4 -12 1
-19z m-724 -13 c4 -8 3 -16 -1 -19 -4 -3 -9 4 -9 15 -2 23 3 25 10 4z m-328
-5 c8 -13 -45 -61 -58 -53 -8 5 -7 8 2 11 7 2 16 15 21 28 10 25 24 31 35 14z
m45 -15 c0 -9 -7 -26 -15 -38 -13 -20 -13 -26 0 -51 20 -38 13 -43 -19 -13
-21 20 -25 31 -20 51 3 14 11 24 17 23 6 -1 12 4 13 11 1 6 2 17 3 22 2 16 21
11 21 -5z m84 -1 c3 -8 2 -12 -4 -9 -6 3 -10 10 -10 16 0 14 7 11 14 -7z m234
-10 c1 -15 -3 -24 -9 -22 -6 2 -10 7 -10 11 1 4 1 14 1 22 0 26 16 16 18 -11z
m536 -19 c-7 -16 -24 -21 -24 -6 0 8 7 13 27 20 1 1 0 -6 -3 -14z m-117 -47
c-3 -7 -5 -2 -5 12 0 14 2 19 5 13 2 -7 2 -19 0 -25z m83 12 c0 -5 -5 -10 -11
-10 -5 0 -7 5 -4 10 3 6 8 10 11 10 2 0 4 -4 4 -10z m187 -22 c-3 -7 -5 -2 -5
12 0 14 2 19 5 13 2 -7 2 -19 0 -25z m-1116 10 c1 -7 1 -16 0 -20 0 -5 6 -8
14 -8 8 0 15 -4 15 -10 0 -11 -32 -1 -42 14 -11 16 -10 36 2 36 6 0 11 -6 11
-12z m959 -30 c0 -18 -2 -20 -9 -8 -6 8 -7 18 -5 22 9 14 14 9 14 -14z m-70 2
c0 -5 -2 -10 -4 -10 -3 0 -8 5 -11 10 -3 6 -1 10 4 10 6 0 11 -4 11 -10z
m-546 -36 c3 -8 2 -12 -4 -9 -6 3 -10 10 -10 16 0 14 7 11 14 -7z m371 7 c3
-5 1 -12 -5 -16 -5 -3 -10 1 -10 9 0 18 6 21 15 7z m145 -5 c0 -3 -4 -8 -10
-11 -5 -3 -10 -1 -10 4 0 6 5 11 10 11 6 0 10 -2 10 -4z m-190 -41 c0 -8 -2
-15 -4 -15 -2 0 -6 7 -10 15 -3 8 -1 15 4 15 6 0 10 -7 10 -15z m37 -37 c-3
-7 -5 -2 -5 12 0 14 2 19 5 13 2 -7 2 -19 0 -25z m-497 1 c0 -5 -4 -9 -8 -9
-5 0 -9 7 -9 15 0 8 4 12 9 9 4 -3 8 -9 8 -15z m580 11 c0 -5 -5 -10 -11 -10
-5 0 -7 5 -4 10 3 6 8 10 11 10 2 0 4 -4 4 -10z m-871 -62 c-1 -24 2 -52 8
-63 6 -11 8 -26 6 -32 -8 -21 -33 -15 -33 8 0 11 -4 18 -8 15 -4 -2 -14 -1
-22 4 -12 7 -12 12 3 28 9 10 17 27 17 38 0 17 17 44 28 44 2 0 2 -19 1 -42z
m754 11 c-9 -9 -12 -7 -10 9 1 14 5 18 11 12 7 -7 6 -14 -1 -21z m-28 -29 c-3
-5 -10 -10 -16 -10 -5 0 -9 5 -9 10 0 6 7 10 16 10 8 0 12 -4 9 -10z m-118
-42 c-3 -8 -6 -5 -6 6 -1 11 2 17 5 13 3 -3 4 -12 1 -19z m113 -24 c0 -8 -4
-14 -8 -14 -4 0 -8 9 -8 19 0 11 4 17 8 15 4 -3 8 -12 8 -20z m-213 1 c0 -8
-4 -12 -9 -9 -5 3 -6 10 -3 15 9 13 12 11 12 -6z m73 -5 c0 -5 -4 -10 -10 -10
-5 0 -10 5 -10 10 0 6 5 10 10 10 6 0 10 -4 10 -10z m-532 -38 c2 -15 -2 -22
-12 -22 -11 0 -16 9 -16 26 0 31 23 28 28 -4z m637 8 c3 -5 1 -10 -4 -10 -6 0
-11 5 -11 10 0 6 2 10 4 10 3 0 8 -4 11 -10z m-715 -15 c0 -8 -4 -15 -10 -15
-5 0 -10 7 -10 15 0 8 5 15 10 15 6 0 10 -7 10 -15z m577 9 c-3 -3 -12 -4 -19
-1 -8 3 -5 6 6 6 11 1 17 -2 13 -5z m208 -4 c3 -5 1 -10 -4 -10 -6 0 -11 5
-11 10 0 6 2 10 4 10 3 0 8 -4 11 -10z m-206 -64 c10 -12 8 -13 -8 -9 -12 3
-18 9 -15 14 7 12 10 11 23 -5z m669 -68 l-1 -53 -6 45 c-6 43 -5 60 5 60 2 0
3 -24 2 -52z m-1148 38 c0 -2 -7 -6 -15 -10 -8 -3 -15 -1 -15 4 0 6 7 10 15
10 8 0 15 -2 15 -4z m435 -5 c3 -5 1 -12 -5 -16 -5 -3 -10 1 -10 9 0 18 6 21
15 7z m75 -1 c0 -5 -4 -10 -10 -10 -5 0 -10 5 -10 10 0 6 5 10 10 10 6 0 10
-4 10 -10z m-36 -46 c3 -8 2 -12 -4 -9 -6 3 -10 10 -10 16 0 14 7 11 14 -7z
m63 -6 c-3 -8 -6 -5 -6 6 -1 11 2 17 5 13 3 -3 4 -12 1 -19z m-761 -60 l-16
-22 0 30 c0 16 6 36 13 43 19 19 22 -24 3 -51z m444 -15 c0 -42 -2 -74 -5 -72
-6 7 -14 132 -8 142 10 17 13 3 13 -70z m-30 25 c0 -4 -6 -5 -14 -2 -8 3 -12
12 -9 21 5 12 7 12 14 1 5 -7 9 -16 9 -20z m220 -2 c0 -3 -4 -8 -10 -11 -5 -3
-10 -1 -10 4 0 6 5 11 10 11 6 0 10 -2 10 -4z m-150 -10 c0 -3 -4 -8 -10 -11
-5 -3 -10 -1 -10 4 0 6 5 11 10 11 6 0 10 -2 10 -4z m-75 -26 c3 -5 1 -10 -4
-10 -6 0 -11 5 -11 10 0 6 2 10 4 10 3 0 8 -4 11 -10z m185 1 c0 -6 -4 -13
-10 -16 -5 -3 -10 1 -10 9 0 9 5 16 10 16 6 0 10 -4 10 -9z m-185 -31 c3 -5 1
-10 -4 -10 -6 0 -11 5 -11 10 0 6 2 10 4 10 3 0 8 -4 11 -10z m975 -31 c0 -11
-7 -19 -16 -19 -11 0 -14 5 -10 16 3 9 6 20 6 25 0 6 5 7 10 4 6 -3 10 -15 10
-26z m-900 17 c0 -3 -4 -8 -10 -11 -5 -3 -10 -1 -10 4 0 6 5 11 10 11 6 0 10
-2 10 -4z m140 -6 c0 -5 -2 -10 -4 -10 -3 0 -8 5 -11 10 -3 6 -1 10 4 10 6 0
11 -4 11 -10z m757 -85 c-4 -8 -11 -15 -17 -15 -7 0 -7 6 0 21 13 23 26 19 17
-6z m-940 -17 c-3 -8 -6 -5 -6 6 -1 11 2 17 5 13 3 -3 4 -12 1 -19z m-97 -30
c0 -5 -4 -8 -10 -8 -5 0 -10 10 -10 23 0 18 2 19 10 7 5 -8 10 -18 10 -22z
m-83 -10 c-3 -8 -6 -5 -6 6 -1 11 2 17 5 13 3 -3 4 -12 1 -19z m-40 -105 c-3
-10 -5 -2 -5 17 0 19 2 27 5 18 2 -10 2 -26 0 -35z m123 43 c0 -3 -4 -8 -10
-11 -5 -3 -10 -1 -10 4 0 6 5 11 10 11 6 0 10 -2 10 -4z m-44 -53 c-11 -11
-17 4 -9 23 7 18 8 18 11 1 2 -10 1 -21 -2 -24z m1071 5 c-3 -7 -5 -2 -5 12 0
14 2 19 5 13 2 -7 2 -19 0 -25z m-1030 -34 c-3 -3 -12 -4 -19 -1 -8 3 -5 6 6
6 11 1 17 -2 13 -5z m-117 -29 c7 -9 8 -15 2 -15 -5 0 -12 7 -16 15 -3 8 -4
15 -2 15 2 0 9 -7 16 -15z m-70 -5 c0 -5 -2 -10 -4 -10 -3 0 -8 5 -11 10 -3 6
-1 10 4 10 6 0 11 -4 11 -10z m-73 -72 c-3 -7 -5 -2 -5 12 0 14 2 19 5 13 2
-7 2 -19 0 -25z m71 1 c-3 -8 -7 -3 -11 10 -4 17 -3 21 5 13 5 -5 8 -16 6 -23z
m-294 2 c3 -4 -4 -17 -16 -27 -12 -11 -19 -14 -16 -9 3 6 8 18 11 28 7 19 13
21 21 8z m153 -13 c-3 -8 -6 -5 -6 6 -1 11 2 17 5 13 3 -3 4 -12 1 -19z m113
-18 c0 -5 -5 -10 -11 -10 -5 0 -7 5 -4 10 3 6 8 10 11 10 2 0 4 -4 4 -10z
m-105 -30 c-3 -5 -11 -10 -16 -10 -6 0 -7 5 -4 10 3 6 11 10 16 10 6 0 7 -4 4
-10z m-1 -85 c-4 -8 -10 -13 -15 -10 -4 3 -6 12 -3 20 4 8 10 13 15 10 4 -3 6
-12 3 -20z m-213 -38 c-10 -9 -11 -8 -5 6 3 10 9 15 12 12 3 -3 0 -11 -7 -18z
m101 -11 c3 -14 1 -31 -4 -38 -8 -10 -9 -9 -5 3 3 9 -1 26 -9 38 -13 18 -13
21 -1 21 8 0 17 -11 19 -24z m7544 -54 c43 -34 53 -67 74 -222 11 -85 29 -198
40 -250 38 -174 50 -273 50 -430 0 -237 -23 -391 -84 -558 -30 -84 -34 -177
-12 -279 28 -130 -14 -222 -124 -272 -59 -27 -65 -26 -102 9 -23 23 -40 30
-69 30 -27 0 -39 4 -39 14 0 15 23 38 36 35 29 -5 55 5 92 33 37 28 42 37 42
73 0 55 -30 100 -90 132 l-50 28 0 97 c0 90 29 281 46 310 5 7 11 61 15 120 7
110 28 168 64 182 19 7 19 54 0 92 -28 57 -63 212 -74 335 -7 68 -19 156 -27
195 -11 54 -12 81 -4 118 13 60 84 202 107 215 28 16 86 12 109 -7z m-7619
-74 c-3 -8 -6 -5 -6 6 -1 11 2 17 5 13 3 -3 4 -12 1 -19z m1831 -316 c38 -44
100 -184 117 -262 9 -42 14 -112 13 -168 -1 -61 3 -105 10 -119 19 -34 27
-174 13 -214 -17 -47 -25 -185 -14 -234 l9 -40 50 3 c29 2 56 -2 66 -10 20
-15 76 -228 84 -321 10 -119 27 -193 80 -353 63 -190 74 -253 49 -277 -37 -37
-137 -10 -222 59 -48 39 -87 114 -155 294 -22 58 -60 147 -84 198 -25 51 -47
107 -51 125 -3 18 -9 34 -13 37 -10 7 -70 220 -70 248 0 13 -9 51 -19 85 -42
138 -61 259 -61 388 0 69 -9 199 -21 290 -20 167 -19 216 7 257 38 59 167 67
212 14z m5594 -1387 c0 -5 -5 -11 -11 -13 -6 -2 -11 4 -11 13 0 9 5 15 11 13
6 -2 11 -8 11 -13z m-4697 -2154 c3 -5 1 -12 -5 -16 -5 -3 -10 1 -10 9 0 18 6
21 15 7z m-1685 -376 c0 -8 -2 -15 -4 -15 -2 0 -6 7 -10 15 -3 8 -1 15 4 15 6
0 10 -7 10 -15z m2306 -82 c-11 -11 -17 4 -9 23 7 18 8 18 11 1 2 -10 1 -21
-2 -24z m3774 -90 c0 -5 -5 -15 -10 -23 -8 -12 -10 -11 -10 8 0 12 5 22 10 22
6 0 10 -3 10 -7z m74 -159 c3 -8 2 -12 -4 -9 -6 3 -10 10 -10 16 0 14 7 11 14
-7z m53 -136 c-3 -8 -6 -5 -6 6 -1 11 2 17 5 13 3 -3 4 -12 1 -19z m-3900 -85
c-3 -10 -5 -4 -5 12 0 17 2 24 5 18 2 -7 2 -21 0 -30z m3920 5 c-3 -7 -5 -2
-5 12 0 14 2 19 5 13 2 -7 2 -19 0 -25z m50 -60 c-3 -8 -6 -5 -6 6 -1 11 2 17
5 13 3 -3 4 -12 1 -19z m-15 -40 c-7 -7 -12 -8 -12 -2 0 14 12 26 19 19 2 -3
-1 -11 -7 -17z m82 -59 c-3 -6 -1 -15 7 -19 10 -7 10 -11 0 -24 -10 -12 -10
-16 -2 -16 7 0 9 -5 5 -11 -4 -8 -9 -7 -15 2 -10 17 -12 63 -2 72 10 11 15 8
7 -4z m-135 -86 c-1 -18 -3 -21 -6 -10 -3 10 -9 14 -16 10 -7 -4 -6 1 2 10 18
23 21 22 20 -10z m143 -22 c-7 -4 -12 -12 -11 -17 1 -5 1 -16 -1 -24 -1 -11
-4 -9 -9 5 -11 26 -3 45 18 45 12 0 13 -2 3 -9z m-4022 -163 c-1 -43 -3 -49
-11 -35 -10 17 -4 87 6 87 3 0 5 -24 5 -52z m-3 -90 c-3 -7 -5 -2 -5 12 0 14
2 19 5 13 2 -7 2 -19 0 -25z m220 -3 c0 -8 -4 -15 -8 -15 -4 0 -9 7 -13 15 -3
9 0 15 8 15 7 0 13 -7 13 -15z m-213 -68 c3 -23 1 -35 -4 -32 -6 4 -10 22 -10
42 0 45 8 39 14 -10z m271 -5 c-3 -3 -11 0 -18 7 -9 10 -8 11 6 5 10 -3 15 -9
12 -12z m-45 -41 c0 -4 -6 -15 -13 -25 -13 -17 -14 -18 -20 -2 -4 10 -3 15 3
11 6 -3 10 1 10 10 0 10 -5 13 -12 9 -7 -4 -8 -3 -4 4 7 11 36 6 36 -7z m3710
-25 c0 -3 -4 -8 -10 -11 -5 -3 -10 -1 -10 4 0 6 5 11 10 11 6 0 10 -2 10 -4z
m-3888 -78 c-9 -9 -12 -7 -12 12 0 19 3 21 12 12 9 -9 9 -15 0 -24z m268 -78
c0 -27 -4 -50 -10 -50 -5 0 -10 6 -11 13 0 6 -2 23 -3 37 -4 30 3 50 15 50 5
0 9 -22 9 -50z m61 -103 c-10 -9 -11 -8 -5 6 3 10 9 15 12 12 3 -3 0 -11 -7
-18z m136 -9 c-3 -8 -6 -5 -6 6 -1 11 2 17 5 13 3 -3 4 -12 1 -19z m-127 -68
c0 -11 -4 -20 -9 -20 -5 0 -7 9 -4 20 3 11 7 20 9 20 2 0 4 -9 4 -20z m50 -78
c0 -15 -2 -15 -10 -2 -13 20 -13 33 0 25 6 -3 10 -14 10 -23z m200 -98 c0 -22
-1 -22 -27 -8 -25 12 -28 12 -31 -1 -2 -8 -8 -13 -13 -9 -5 3 -26 8 -45 10
-20 2 -44 9 -54 14 -9 5 -21 6 -25 2 -5 -4 -5 -2 -2 4 4 7 43 11 102 11 92 0
95 -1 95 -23z"/>
<path d="M6870 8626 c-180 -38 -260 -119 -260 -262 0 -57 5 -66 50 -99 28 -21
42 -24 80 -20 25 2 99 9 165 15 66 6 136 13 155 15 235 25 279 27 425 21 185
-8 267 -22 386 -65 47 -17 131 -40 187 -51 72 -14 125 -32 178 -60 81 -43 142
-52 164 -25 11 13 10 27 -4 76 -27 98 -59 150 -153 246 -98 100 -155 142 -246
182 l-62 26 -345 0 c-190 0 -415 3 -500 7 -116 6 -171 4 -220 -6z"/>
<path d="M5235 8512 c-22 -1 -130 -16 -240 -33 -137 -21 -254 -32 -370 -36
-192 -6 -256 -18 -364 -70 -120 -58 -265 -221 -337 -377 -55 -120 -27 -145 78
-73 87 60 92 62 225 109 65 22 127 47 138 54 12 8 57 23 100 34 87 22 212 28
775 34 335 3 385 10 426 59 23 28 26 37 21 85 -11 106 -82 183 -187 202 -61
10 -204 17 -265 12z"/>
<path d="M7555 8021 c-104 -15 -263 -76 -412 -159 -39 -22 -93 -81 -93 -103 0
-11 -7 -22 -15 -25 -8 -4 -12 -10 -9 -15 3 -6 -13 -29 -36 -52 -87 -86 -124
-166 -84 -181 23 -9 105 -6 129 4 l20 9 -20 2 c-11 1 -30 1 -41 0 -12 -1 -26
5 -33 13 -19 23 84 115 197 175 53 29 108 55 124 58 28 5 28 5 28 -46 0 -89
68 -183 146 -202 48 -11 169 -9 206 3 33 12 80 63 109 120 18 34 20 52 15 100
-4 32 -3 58 1 58 12 0 76 -33 98 -51 32 -26 77 -77 89 -101 10 -19 18 -22 56
-19 74 5 81 12 77 84 -4 73 -35 129 -94 174 -21 15 -50 39 -64 54 -42 40 -147
87 -214 94 -117 12 -131 13 -180 6z m151 -41 c78 -13 167 -53 188 -85 16 -24
15 -25 -4 -25 -12 0 -42 9 -67 21 -78 36 -153 51 -216 45 -71 -7 -237 -62
-336 -111 -41 -20 -89 -39 -107 -42 -19 -3 -34 -11 -34 -17 0 -12 -38 -41 -55
-41 -5 0 -16 -4 -22 -8 -24 -15 -13 2 20 32 85 78 170 131 211 131 7 0 24 8
37 18 54 40 206 91 274 92 28 0 78 -5 111 -10z m244 -135 c16 -19 0 -19 -26 0
-16 12 -16 14 -3 15 9 0 22 -7 29 -15z m-328 -172 c22 -20 24 -49 3 -57 -23
-8 -45 4 -51 30 -11 43 15 57 48 27z"/>
<path d="M4750 7819 c-100 -22 -121 -30 -220 -76 -122 -58 -211 -140 -242
-222 -22 -57 -23 -77 -1 -85 20 -8 36 14 22 31 -6 6 -9 20 -7 30 3 14 8 11 21
-15 17 -32 17 -34 -3 -59 -11 -14 -20 -29 -20 -34 0 -19 39 -28 86 -20 47 9
90 1 159 -29 11 -4 29 -11 39 -14 16 -6 17 -4 6 9 -7 8 -20 15 -28 15 -23 0
-72 50 -72 74 0 12 12 31 28 43 86 70 110 87 141 100 51 22 61 13 54 -46 -5
-42 -1 -59 21 -103 14 -29 37 -66 51 -83 l25 -30 122 2 c139 3 217 17 225 42
3 9 16 41 29 72 14 33 24 76 24 104 l0 48 31 -7 c53 -10 213 -85 252 -117 35
-29 49 -59 27 -59 -5 0 -10 -4 -10 -10 0 -27 37 -2 45 32 11 45 -48 99 -184
165 -64 31 -118 60 -121 63 -12 13 -51 30 -70 30 -11 0 -20 4 -20 9 0 30 -264
42 -380 17 -106 -22 -223 -65 -251 -92 -14 -13 -29 -24 -33 -24 -4 0 -22 -10
-39 -22 -19 -14 -32 -18 -34 -11 -3 8 -14 8 -33 3 -45 -13 -44 3 3 51 59 60
248 154 365 180 88 21 259 23 326 4 34 -9 66 -22 71 -29 6 -7 39 -26 75 -41
36 -16 67 -32 70 -35 3 -4 15 -9 28 -13 32 -8 23 14 -14 33 -16 8 -31 17 -34
20 -13 13 -188 94 -228 106 -63 19 -201 16 -302 -7z m165 -348 c0 -33 -30 -51
-51 -29 -13 13 -14 20 -4 37 16 31 55 25 55 -8z"/>
<path d="M7950 7604 c0 -8 5 -12 10 -9 6 3 10 10 10 16 0 5 -4 9 -10 9 -5 0
-10 -7 -10 -16z"/>
<path d="M5353 7363 c15 -2 39 -2 55 0 15 2 2 4 -28 4 -30 0 -43 -2 -27 -4z"/>
<path d="M7190 6313 c0 -3 12 -31 27 -61 51 -103 41 -238 -23 -333 -30 -45
-43 -79 -30 -79 31 0 58 27 88 87 30 63 33 75 32 163 0 98 -5 111 -65 208 -13
21 -29 29 -29 15z"/>
<path d="M5568 6153 c-64 -136 -51 -304 30 -391 36 -40 102 -67 102 -42 0 6
-6 13 -13 16 -15 5 -84 93 -105 133 -25 48 -26 123 -2 225 12 52 20 100 18
106 -1 5 -15 -16 -30 -47z"/>
<path d="M6840 6023 c-75 -19 -175 -69 -199 -100 -26 -32 -26 -40 -2 -48 13
-4 17 -12 14 -24 -5 -18 1 -19 94 -16 110 4 146 10 152 26 2 8 6 7 12 -2 7
-11 9 -10 9 4 0 9 6 17 13 17 27 0 64 25 76 52 34 77 -49 122 -169 91z"/>
<path d="M5893 5954 c-38 -9 -83 -59 -83 -93 0 -27 4 -31 38 -36 20 -4 43 -8
50 -10 14 -5 16 -35 2 -35 -5 0 -10 -4 -10 -10 0 -14 53 -13 68 2 8 8 15 8 27
-2 12 -10 21 -10 42 -1 15 7 47 17 72 22 25 5 57 12 71 15 14 4 31 7 38 7 19
1 14 45 -8 67 -40 40 -130 72 -210 75 -41 2 -85 1 -97 -1z"/>
<path d="M5842 5789 c2 -7 10 -15 17 -17 8 -3 12 1 9 9 -2 7 -10 15 -17 17 -8
3 -12 -1 -9 -9z"/>
<path d="M6656 5714 c-10 -3 -61 -28 -113 -55 -56 -29 -108 -49 -127 -49 -46
0 -144 19 -192 36 -44 17 -129 13 -147 -5 -6 -6 -19 -11 -29 -11 -10 0 -26 -7
-35 -15 -56 -49 -178 -111 -258 -132 -25 -6 -61 -20 -98 -39 -16 -8 -37 -14
-47 -14 -10 0 -21 -4 -24 -9 -3 -5 -28 -14 -56 -21 -28 -7 -53 -16 -56 -21 -3
-5 -18 -9 -33 -9 -15 0 -31 -4 -36 -9 -19 -19 -109 -62 -169 -82 -72 -24 -130
-53 -169 -86 -16 -13 -33 -23 -39 -23 -14 0 -53 -43 -86 -94 -34 -55 -53 -151
-40 -212 18 -82 101 -204 139 -204 29 0 66 21 79 44 6 11 32 37 57 55 25 19
52 46 61 60 42 69 89 103 273 198 14 7 34 22 44 33 10 11 22 20 27 20 17 0 83
50 83 63 0 6 11 14 25 17 37 7 90 42 90 58 0 12 -3 12 -15 2 -8 -7 -15 -8 -15
-3 0 6 16 18 35 29 19 10 35 23 35 27 0 5 7 4 15 -3 8 -6 18 -9 24 -6 5 3 11
1 13 -6 3 -8 18 -5 49 10 25 12 50 22 56 22 6 0 14 10 17 23 6 19 8 20 16 6 9
-15 15 -15 67 7 52 21 59 26 64 58 3 19 3 40 -1 47 -10 15 0 50 11 43 5 -3 9
-14 9 -25 0 -12 7 -19 20 -19 24 0 27 15 4 24 -20 8 -9 26 17 26 10 0 19 6 19
14 0 16 31 16 42 1 4 -5 8 -21 9 -35 0 -14 2 -20 5 -15 2 6 31 9 64 8 33 -1
60 1 60 5 0 4 9 8 20 9 13 1 20 -4 20 -17 0 -14 -6 -18 -20 -15 -24 5 -50 -3
-50 -15 0 -4 17 -6 38 -5 22 1 73 -1 116 -4 45 -4 80 -3 86 3 7 7 10 6 10 -2
0 -7 13 -12 30 -12 30 0 43 24 18 32 -8 3 -6 7 5 11 9 3 16 3 16 -1 -5 -33 2
-43 29 -39 33 5 197 -17 251 -34 20 -6 61 -20 91 -29 30 -10 96 -28 145 -41
103 -25 138 -41 240 -109 91 -62 142 -120 152 -174 7 -35 14 -44 49 -61 23
-11 58 -35 78 -52 51 -46 113 -76 141 -69 51 13 86 96 86 207 1 95 -16 161
-55 224 -57 92 -104 131 -223 190 -62 30 -115 55 -118 55 -3 0 -25 8 -48 19
-58 26 -242 75 -346 93 -29 5 -114 29 -188 54 -104 35 -153 46 -216 49 -45 2
-90 2 -101 -1z m-670 -175 c10 -16 -10 -31 -37 -27 -22 3 -22 4 -5 21 20 20
32 22 42 6z m152 -36 c16 -16 16 -16 0 -11 -18 7 -34 -17 -18 -27 6 -4 10 -11
10 -16 0 -6 -4 -8 -9 -5 -5 4 -12 0 -14 -6 -3 -7 -6 -3 -6 8 -1 12 -8 27 -16
34 -8 7 -15 17 -15 22 0 6 7 5 15 -2 12 -10 16 -9 21 4 8 20 11 20 32 -1z m49
-5 c-3 -8 -6 -5 -6 6 -1 11 2 17 5 13 3 -3 4 -12 1 -19z m180 0 c-3 -8 -6 -5
-6 6 -1 11 2 17 5 13 3 -3 4 -12 1 -19z m-461 -20 c-2 -18 -4 -36 -5 -40 0 -5
-6 -8 -12 -8 -6 0 -8 9 -4 20 4 13 1 22 -9 26 -9 3 -16 10 -16 15 0 4 6 6 14
3 8 -3 17 -1 21 5 11 19 15 12 11 -21z m111 16 c-3 -3 -12 -4 -19 -1 -8 3 -5
6 6 6 11 1 17 -2 13 -5z m-180 -21 c-4 -3 -2 -12 4 -20 6 -7 7 -13 2 -13 -5 0
-16 9 -26 20 -16 19 -16 20 5 20 12 0 18 -3 15 -7z m133 -3 c0 -5 -5 -10 -11
-10 -6 0 -17 -7 -26 -15 -22 -23 -28 -10 -6 13 19 22 43 28 43 12z m56 -36
c-3 -7 -1 -16 4 -19 6 -4 10 6 10 22 0 19 3 24 9 15 7 -11 11 -11 23 2 14 13
16 12 14 -14 -1 -27 -16 -45 -16 -20 0 6 -4 10 -10 10 -5 0 -10 -22 -10 -48 0
-36 -4 -49 -15 -49 -8 0 -11 5 -7 11 14 22 13 56 -2 56 -7 0 -17 7 -20 16 -3
8 -10 12 -16 9 -5 -3 -10 1 -10 10 0 9 5 13 10 10 6 -3 10 1 10 11 0 14 3 14
15 4 9 -7 14 -19 11 -26z m562 -2 c2 -7 -7 -12 -22 -12 -24 0 -41 12 -31 22 9
9 49 1 53 -10z m-702 -12 c14 0 19 -21 7 -33 -8 -9 -32 24 -32 43 0 10 2 11 6
3 2 -7 11 -13 19 -13z m-156 0 c0 -5 7 -10 15 -10 8 0 15 -4 15 -10 0 -5 -7
-7 -15 -4 -9 4 -15 0 -15 -9 0 -9 9 -14 27 -13 30 1 43 -19 13 -21 -11 -1 -20
3 -20 9 0 7 -5 7 -14 -1 -11 -9 -15 -6 -20 14 -5 19 -11 25 -24 21 -10 -4 -27
1 -38 9 -18 14 -16 14 19 10 20 -2 37 0 37 5 0 6 5 10 10 10 6 0 10 -4 10 -10z
m275 -55 c11 -8 15 -15 8 -15 -6 0 -15 5 -18 10 -4 6 -11 7 -17 4 -7 -4 -8 -2
-4 4 4 7 2 12 -3 12 -6 0 -11 12 -10 28 l1 27 12 -27 c6 -15 21 -34 31 -43z
m125 46 c0 -6 -5 -13 -10 -16 -6 -4 -8 -15 -5 -26 4 -11 2 -19 -4 -19 -6 0
-11 16 -11 35 0 24 5 35 15 35 8 0 15 -4 15 -9z m-524 -38 c-10 -10 -19 5 -10
18 6 11 8 11 12 0 2 -7 1 -15 -2 -18z m349 -41 c-8 -8 -25 10 -25 26 0 13 2
13 14 -4 8 -10 13 -21 11 -22z m135 29 c0 -5 -7 -11 -14 -14 -10 -4 -13 -1 -9
9 6 15 23 19 23 5z m-543 -53 c-3 -7 -5 -2 -5 12 0 14 2 19 5 13 2 -7 2 -19 0
-25z"/>
<path d="M6323 5410 c-31 -13 -29 -20 7 -20 20 0 30 5 30 15 0 17 -5 18 -37 5z"/>
<path d="M6175 5376 c-11 -8 -17 -17 -14 -20 10 -10 59 12 59 26 0 10 -2 10
-9 -1 -6 -9 -10 -10 -12 -2 -3 8 -10 7 -24 -3z"/>
<path d="M6785 5204 c-41 -9 -190 -59 -195 -65 -19 -25 -175 -35 -230 -15 -8
3 -52 10 -98 15 -92 10 -200 0 -247 -22 -16 -8 -55 -27 -85 -42 -30 -14 -84
-42 -120 -61 -36 -18 -70 -34 -77 -34 -7 0 -33 -15 -59 -32 -25 -18 -53 -37
-61 -43 -9 -5 -26 -20 -39 -33 -35 -33 -99 -57 -191 -72 -46 -7 -87 -18 -93
-26 -13 -15 5 -21 170 -54 151 -31 188 -33 227 -15 18 9 39 13 45 8 21 -12 46
-10 41 3 -6 17 46 43 79 39 20 -2 29 2 33 16 5 16 10 18 21 8 11 -9 14 -8 14
3 0 10 18 19 58 27 66 13 178 29 207 29 11 0 52 2 90 6 39 3 112 8 163 11 52
3 107 8 123 12 24 5 29 2 29 -14 0 -16 6 -19 30 -18 44 3 48 14 9 22 l-34 7
50 12 c32 9 51 10 53 3 3 -6 9 -6 18 2 11 9 14 7 14 -12 1 -34 45 -65 73 -51
23 11 62 11 73 -1 4 -4 13 1 20 11 13 16 13 16 14 0 0 -19 20 -26 20 -8 0 6 5
10 10 10 6 0 10 -13 10 -29 0 -16 6 -34 14 -40 8 -7 12 -20 9 -30 -3 -10 0
-22 6 -25 5 -4 8 -13 5 -20 -3 -8 -1 -17 5 -21 7 -3 11 2 11 14 0 11 -5 23
-10 26 -8 5 -8 11 0 20 6 8 10 19 9 27 -3 25 1 38 12 38 6 0 9 -9 6 -20 -5
-19 15 -50 32 -50 5 0 16 15 25 33 8 17 16 26 16 19 0 -7 4 -11 8 -8 5 3 19
-6 30 -19 27 -30 41 -31 86 -4 42 25 45 35 11 41 -14 3 -25 2 -25 -2 0 -13
-29 -20 -36 -8 -4 7 -3 8 4 4 15 -9 15 -1 0 24 -17 26 3 50 26 31 8 -7 20 -10
26 -6 6 3 10 -3 10 -14 0 -17 5 -20 28 -17 34 4 113 39 150 66 15 11 59 33 97
49 85 34 91 53 20 62 -58 7 -104 29 -137 63 -27 29 -133 86 -203 109 -148 50
-178 56 -276 61 -57 3 -113 3 -124 0z m196 -441 c13 -16 12 -17 -3 -4 -10 7
-18 15 -18 17 0 8 8 3 21 -13z m72 -8 c-3 -9 -8 -14 -10 -11 -3 3 -2 9 2 15 9
16 15 13 8 -4z"/>
<path d="M6702 4835 c0 -16 2 -22 5 -12 2 9 2 23 0 30 -3 6 -5 -1 -5 -18z"/>
<path d="M6881 4784 c0 -11 3 -14 6 -6 3 7 2 16 -1 19 -3 4 -6 -2 -5 -13z"/>
<path d="M6020 4780 c0 -5 5 -10 10 -10 6 0 10 5 10 10 0 6 -4 10 -10 10 -5 0
-10 -4 -10 -10z"/>
<path d="M6730 4751 c0 -5 5 -13 10 -16 6 -3 10 -2 10 4 0 5 -4 13 -10 16 -5
3 -10 2 -10 -4z"/>
<path d="M5980 4739 c0 -5 5 -7 10 -4 6 3 10 8 10 11 0 2 -4 4 -10 4 -5 0 -10
-5 -10 -11z"/>
<path d="M7090 4725 c0 -9 -6 -12 -15 -9 -8 4 -15 1 -15 -4 0 -6 -9 -14 -20
-17 -11 -3 -20 -13 -20 -22 0 -10 6 -13 16 -9 9 3 21 6 28 6 7 0 21 8 32 18
11 11 26 21 33 23 8 3 3 9 -13 17 -21 10 -26 9 -26 -3z"/>
<path d="M6590 4705 c0 -8 2 -15 4 -15 2 0 6 7 10 15 3 8 1 15 -4 15 -6 0 -10
-7 -10 -15z"/>
<path d="M6702 4695 c0 -16 2 -22 5 -12 2 9 2 23 0 30 -3 6 -5 -1 -5 -18z"/>
<path d="M5951 4644 c0 -11 3 -14 6 -6 3 7 2 16 -1 19 -3 4 -6 -2 -5 -13z"/>
<path d="M6517 4636 c-5 -12 -13 -13 -37 -6 -26 7 -30 7 -21 -4 17 -21 51 -27
58 -11 8 22 44 -5 37 -27 -10 -32 11 -19 28 17 8 19 10 31 4 28 -14 -10 -49
-4 -57 9 -4 5 -9 3 -12 -6z"/>
<path d="M6865 4632 c-44 -8 -38 -22 8 -20 26 2 47 8 47 13 0 11 -20 13 -55 7z"/>
<path d="M6017 4600 c10 -11 21 -20 25 -20 4 0 0 9 -9 20 -10 11 -21 20 -25
20 -4 0 0 -9 9 -20z"/>
<path d="M6730 4600 c0 -5 -20 -9 -44 -8 -45 1 -66 -6 -66 -22 0 -9 87 -6 163
6 42 6 48 19 15 28 -35 9 -68 7 -68 -4z"/>
<path d="M6346 4587 c3 -10 9 -15 12 -12 3 3 0 11 -7 18 -10 9 -11 8 -5 -6z"/>
<path d="M6377 4586 c-5 -12 0 -16 21 -15 16 0 21 3 12 6 -8 3 -18 10 -21 15
-3 5 -9 3 -12 -6z"/>
<path d="M6300 4575 c0 -17 9 -19 28 -6 11 7 10 10 -3 15 -23 9 -25 8 -25 -9z"/>
<path d="M6491 4574 c0 -11 3 -14 6 -6 3 7 2 16 -1 19 -3 4 -6 -2 -5 -13z"/>
<path d="M6510 4580 c0 -5 7 -10 15 -10 8 0 15 5 15 10 0 6 -7 10 -15 10 -8 0
-15 -4 -15 -10z"/>
<path d="M6582 4581 c4 -13 18 -16 19 -4 0 4 -5 9 -11 12 -7 2 -11 -2 -8 -8z"/>
<path d="M6700 4473 c-105 -5 -248 -22 -346 -42 -115 -24 -264 -91 -264 -119
0 -11 6 -24 13 -30 19 -15 136 -60 187 -71 89 -19 251 -33 308 -26 61 7 224
68 362 134 104 50 117 60 131 100 20 57 8 61 -170 59 -86 -1 -185 -3 -221 -5z"/>
<path d="M9068 7295 c-99 -167 -103 -178 -68 -249 25 -52 114 -305 147 -416
32 -111 43 -133 59 -119 32 27 25 184 -16 329 -10 36 -30 120 -46 188 -26 115
-27 128 -15 196 12 73 4 126 -18 126 -5 0 -24 -25 -43 -55z"/>
<path d="M9200 6330 c0 -11 -7 -23 -15 -26 -8 -4 -15 -14 -15 -24 0 -11 -4
-22 -10 -25 -5 -3 -10 -16 -10 -28 0 -21 1 -21 15 3 8 14 19 35 24 47 5 11 15
24 20 28 14 8 14 45 1 45 -5 0 -10 -9 -10 -20z"/>
<path d="M3160 6846 c0 -3 14 -62 31 -133 l32 -128 -7 -210 c-4 -115 -4 -218
-1 -227 14 -35 25 -5 25 65 1 40 10 108 21 152 11 44 26 112 34 150 8 39 22
89 31 113 29 76 6 126 -90 191 -39 27 -76 40 -76 27z"/>
<path d="M3480 5734 c0 -25 16 -63 54 -127 29 -51 65 -116 80 -144 26 -52 56
-70 56 -34 0 20 -116 254 -153 308 -29 42 -37 41 -37 -3z"/>
<path d="M9903 3283 c-7 -2 -13 -11 -13 -19 0 -9 5 -12 10 -9 6 3 10 1 10 -4
0 -6 5 -11 10 -11 6 0 10 11 10 25 0 25 -4 28 -27 18z"/>
<path d="M9171 3204 c0 -11 3 -14 6 -6 3 7 2 16 -1 19 -3 4 -6 -2 -5 -13z"/>
<path d="M9165 3170 c3 -5 8 -10 11 -10 2 0 4 5 4 10 0 6 -5 10 -11 10 -5 0
-7 -4 -4 -10z"/>
<path d="M9810 3081 c0 -6 -9 -20 -20 -31 -11 -11 -20 -33 -20 -50 0 -18 -6
-33 -15 -36 -8 -3 -17 -14 -20 -25 -4 -11 -11 -17 -16 -13 -7 4 -9 -7 -7 -27
2 -21 8 -34 17 -34 16 0 22 9 51 80 12 28 28 64 36 82 17 37 18 50 4 58 -5 3
-10 1 -10 -4z"/>
<path d="M9171 3064 c0 -11 3 -14 6 -6 3 7 2 16 -1 19 -3 4 -6 -2 -5 -13z"/>
<path d="M9205 3030 c-3 -5 1 -10 10 -10 9 0 13 5 10 10 -3 6 -8 10 -10 10 -2
0 -7 -4 -10 -10z"/>
<path d="M9657 2773 c-3 -16 1 -36 9 -47 8 -11 14 -18 15 -16 10 62 9 90 -4
90 -8 0 -17 -12 -20 -27z"/>
<path d="M8671 2684 c0 -11 3 -14 6 -6 3 7 2 16 -1 19 -3 4 -6 -2 -5 -13z"/>
<path d="M9630 2604 c0 -8 5 -12 10 -9 6 3 10 10 10 16 0 5 -4 9 -10 9 -5 0
-10 -7 -10 -16z"/>
<path d="M8991 2454 c0 -11 3 -14 6 -6 3 7 2 16 -1 19 -3 4 -6 -2 -5 -13z"/>
<path d="M8990 2391 c0 -25 6 -27 13 -6 4 8 2 17 -3 20 -6 4 -10 -3 -10 -14z"/>
<path d="M8991 2314 c0 -11 3 -14 6 -6 3 7 2 16 -1 19 -3 4 -6 -2 -5 -13z"/>
<path d="M8910 2263 c0 -5 5 -15 10 -23 8 -12 10 -11 10 8 0 12 -4 22 -10 22
-5 0 -10 -3 -10 -7z"/>
<path d="M9170 2195 c0 -8 4 -15 10 -15 5 0 7 7 4 15 -4 8 -8 15 -10 15 -2 0
-4 -7 -4 -15z"/>
<path d="M9208 2173 c-7 -9 -8 -17 -1 -24 12 -12 43 -1 43 16 0 8 12 16 28 18
16 2 10 4 -16 4 -23 0 -47 -6 -54 -14z"/>
<path d="M8849 2138 c-7 -25 -7 -48 1 -53 6 -4 10 7 10 24 0 17 -2 31 -5 31
-3 0 -5 -1 -6 -2z"/>
<path d="M8885 2130 c-3 -5 -1 -10 4 -10 6 0 11 5 11 10 0 6 -2 10 -4 10 -3 0
-8 -4 -11 -10z"/>
<path d="M9025 2130 c3 -5 11 -10 16 -10 6 0 7 5 4 10 -3 6 -11 10 -16 10 -6
0 -7 -4 -4 -10z"/>
<path d="M9170 2124 c0 -8 5 -12 10 -9 6 3 10 10 10 16 0 5 -4 9 -10 9 -5 0
-10 -7 -10 -16z"/>
<path d="M8885 2090 c-3 -5 -4 -10 0 -10 3 0 1 -9 -5 -20 -15 -28 -3 -60 21
-60 12 0 19 -7 19 -20 0 -13 -7 -20 -20 -20 -11 0 -20 -7 -20 -16 0 -17 8 -14
57 25 39 30 42 42 11 38 -15 -1 -23 3 -23 13 0 8 -6 20 -13 25 -7 6 -14 20
-15 33 -1 25 -3 26 -12 12z"/>
<path d="M5014 2021 c11 -18 -6 -42 -25 -36 -11 4 -19 2 -19 -5 0 -6 -4 -8
-10 -5 -5 3 -10 1 -10 -4 0 -6 5 -11 11 -11 5 0 7 -4 4 -10 -3 -5 3 -10 14
-10 11 0 22 9 26 20 3 11 11 20 16 20 5 0 9 11 9 25 0 14 -5 25 -11 25 -5 0
-8 -4 -5 -9z"/>
<path d="M5026 1942 c2 -3 -1 -11 -7 -19 -8 -9 -8 -13 -1 -13 16 0 26 20 15
30 -6 4 -8 5 -7 2z"/>
<path d="M5056 1802 c-10 -17 -3 -72 11 -72 7 0 13 7 13 15 0 8 -5 15 -11 15
-7 0 -9 10 -7 25 5 25 3 31 -6 17z"/>
<path d="M5095 1790 c-7 -12 2 -30 16 -30 5 0 9 9 9 20 0 21 -15 27 -25 10z"/>
<path d="M5166 1671 c-3 -5 1 -11 9 -14 9 -4 12 -1 8 9 -6 16 -10 17 -17 5z"/>
<path d="M6877 1573 c-4 -4 -37 -8 -73 -11 -37 -2 -76 -7 -88 -12 -12 -5 22
-6 84 -3 58 2 114 8 125 13 11 5 27 11 35 13 8 3 -6 6 -31 6 -25 1 -49 -2 -52
-6z"/>
<path d="M5202 1544 c-1 -13 0 -24 2 -24 7 0 14 40 7 44 -4 3 -8 -6 -9 -20z"/>
<path d="M5155 1520 c3 -5 8 -10 11 -10 2 0 4 5 4 10 0 6 -5 10 -11 10 -5 0
-7 -4 -4 -10z"/>
<path d="M5016 1505 c-3 -9 -10 -14 -15 -10 -5 3 -12 1 -16 -5 -4 -6 6 -10 24
-10 32 0 37 6 22 28 -7 11 -9 10 -15 -3z"/>
</g>
</svg>
